<svg width="44" height="58" viewBox="0 0 44 58" fill="none" xmlns="http://www.w3.org/2000/svg">
<path d="M0.519531 46.8157L0.876566 46.3241L17.766 14.8079L17.8017 14.4743L10.3565 0.721195C9.7327 -0.430876 7.97667 -0.139592 7.77196 1.15006L0.519531 46.8157Z" fill="#FFC24A"/>
<path d="M0.730103 46.4408L1.00019 45.9229L17.7127 14.737L10.2861 0.927921C9.66886 -0.212079 8.10146 0.0785303 7.8989 1.35467L0.730103 46.4408Z" fill="#FFA712"/>
<path d="M23.2294 24.8773L28.7729 19.2939L23.2278 8.88356C22.7014 7.89815 21.2316 7.8953 20.7108 8.88356L17.7483 14.4401V14.9133L23.2294 24.8773Z" fill="#F4BD62"/>
<path d="M23.1305 24.6447L28.5198 19.2166L23.1305 9.12438C22.6187 8.16638 21.3755 8.066 20.8692 9.02677L17.8909 14.6694L17.8019 14.9578L23.1305 24.6447Z" fill="#FFA50E"/>
<path d="M0.519531 46.8158L0.681369 46.6558L1.26938 46.4207L22.8811 25.246L23.1549 24.513L17.7636 14.4098L0.519531 46.8158Z" fill="#F6820C"/>
<path d="M23.9215 57.4946L43.4806 46.7671L37.8952 12.9382C37.7205 11.8798 36.4001 11.4613 35.6298 12.2202L0.519531 46.8158L19.9664 57.4937C21.1954 58.1685 22.6922 58.1689 23.9215 57.4946Z" fill="#FDE068"/>
<path d="M43.3053 46.6771L37.7623 13.105C37.5889 12.0546 36.4909 11.62 35.7264 12.3731L0.736328 46.7501L19.9696 57.3223C21.1893 57.992 22.6747 57.9923 23.8947 57.3232L43.3053 46.6771Z" fill="#FCCA3F"/>
<path d="M23.9215 57.1786C22.6922 57.8528 21.1954 57.8525 19.9664 57.1777L0.676165 46.6531L0.519531 46.8158L19.9664 57.4937C21.1954 58.1686 22.6922 58.1689 23.9215 57.4947L43.4806 46.7671L43.4327 46.4773L23.9215 57.1786Z" fill="#EEAB37"/>
</svg>
