<svg width="65" height="64" viewBox="0 0 65 64" fill="none" xmlns="http://www.w3.org/2000/svg">
<path d="M57.1757 29.4666L35.4424 7.73329C34.7757 7.06663 33.8424 6.66663 32.909 6.66663C31.9757 6.66663 31.0424 7.06663 30.3757 7.73329L25.709 12.4L31.1757 17.8666C31.709 17.6 32.2424 17.4666 32.909 17.4666C35.1757 17.4666 36.909 19.2 36.909 21.4666C36.909 22.1333 36.7757 22.6666 36.509 23.2L41.8424 28.5333C42.3757 28.2666 42.909 28.1333 43.5757 28.1333C45.8424 28.1333 47.5757 29.8666 47.5757 32.1333C47.5757 34.4 45.8424 36.1333 43.5757 36.1333C41.309 36.1333 39.5757 34.4 39.5757 32.1333C39.5757 31.4666 39.709 30.9333 39.9757 30.4L34.6423 25.0666C34.509 25.0666 34.3757 25.2 34.2424 25.2V39.0666C35.8424 39.6 36.909 41.0666 36.909 42.8C36.909 45.0666 35.1757 46.8 32.909 46.8C30.6424 46.8 28.909 45.0666 28.909 42.8C28.909 41.0666 29.9757 39.6 31.5757 39.0666V25.0666C29.9757 24.5333 28.909 23.0666 28.909 21.3333C28.909 20.6666 29.0424 20.1333 29.309 19.6L23.8424 14.1333L8.64235 29.4666C7.97568 30.1333 7.57568 31.0666 7.57568 32C7.57568 32.9333 7.97568 33.8666 8.64235 34.5333L30.3757 56.2666C31.0424 56.9333 31.9757 57.3333 32.909 57.3333C33.8424 57.3333 34.7757 56.9333 35.4424 56.2666L57.1757 34.5333C57.8424 33.8666 58.2424 32.9333 58.2424 32C58.2424 31.0666 57.8424 30.1333 57.1757 29.4666Z" fill="#F4511E"/>
</svg>
