<svg width="64" height="65" viewBox="0 0 64 65" fill="none" xmlns="http://www.w3.org/2000/svg">
<g clip-path="url(#clip0_6_603)">
<path d="M61 0.5H3C1.34315 0.5 0 1.84315 0 3.5V61.5C0 63.1569 1.34315 64.5 3 64.5H61C62.6569 64.5 64 63.1569 64 61.5V3.5C64 1.84315 62.6569 0.5 61 0.5Z" fill="#3178C6"/>
<path fill-rule="evenodd" clip-rule="evenodd" d="M37.1311 50.234V57.247C38.2673 57.831 39.611 58.2695 41.1623 58.5615C42.7137 58.854 44.3488 59 46.0676 59C47.7428 59 49.3341 58.8395 50.8415 58.518C52.3495 58.1965 53.671 57.667 54.8075 56.929C55.9435 56.191 56.843 55.227 57.506 54.036C58.1685 52.8455 58.5 51.3735 58.5 49.6203C58.5 48.3493 58.3105 47.2353 57.932 46.2783C57.553 45.3214 57.007 44.4704 56.293 43.7252C55.5795 42.9801 54.7235 42.3117 53.726 41.72C52.728 41.1283 51.603 40.5694 50.35 40.0435C49.4324 39.6636 48.6094 39.2947 47.8811 38.9368C47.1527 38.5788 46.5337 38.2136 46.0239 37.841C45.514 37.4684 45.1208 37.074 44.844 36.6576C44.5673 36.2413 44.4288 35.77 44.4288 35.2441C44.4288 34.7619 44.5527 34.3273 44.8003 33.9402C45.048 33.553 45.3975 33.2206 45.8491 32.943C46.3006 32.6655 46.8542 32.45 47.5097 32.2966C48.1651 32.1431 48.8934 32.0664 49.6946 32.0664C50.2775 32.0664 50.8925 32.1103 51.541 32.1979C52.189 32.2856 52.841 32.4207 53.4965 32.6034C54.152 32.786 54.789 33.0161 55.4085 33.2937C56.0275 33.5713 56.599 33.8927 57.1235 34.2579V27.7054C56.06 27.2963 54.8985 26.9931 53.6385 26.7959C52.3785 26.5986 50.933 26.5 49.3013 26.5C47.6408 26.5 46.0676 26.6789 44.5818 27.0369C43.0961 27.3948 41.7887 27.9537 40.6598 28.7134C39.5309 29.4731 38.6387 30.441 37.9832 31.6171C37.3277 32.7932 37 34.1995 37 35.8358C37 37.9251 37.6009 39.7074 38.8026 41.183C40.0044 42.6587 41.8288 43.9079 44.2759 44.9305C45.2373 45.325 46.1332 45.7122 46.9634 46.092C47.7937 46.4719 48.5111 46.8664 49.1156 47.2755C49.7201 47.6846 50.197 48.1302 50.5465 48.6123C50.8965 49.0944 51.071 49.6423 51.071 50.2559C51.071 50.709 50.962 51.129 50.7435 51.516C50.525 51.903 50.1935 52.239 49.7492 52.524C49.3049 52.809 48.7514 53.032 48.0886 53.1925C47.4259 53.353 46.6502 53.4335 45.7617 53.4335C44.2467 53.4335 42.7465 53.167 41.2607 52.6335C39.7749 52.1005 38.3984 51.3005 37.1311 50.234ZM25.3513 32.7772H34.5V27H9V32.7772H18.104V58.5H25.3513V32.7772Z" fill="white"/>
</g>
<defs>
<clipPath id="clip0_6_603">
<rect width="64" height="64" fill="white" transform="translate(0 0.5)"/>
</clipPath>
</defs>
</svg>
