<svg width="61" height="62" viewBox="0 0 61 62" fill="none" xmlns="http://www.w3.org/2000/svg">
<path fill-rule="evenodd" clip-rule="evenodd" d="M30.8185 0.5C14.252 0.5 0.818237 14.5007 0.818237 31.7722C0.818237 45.589 9.41422 57.3112 21.3342 61.4463C22.8336 61.7357 23.384 60.7679 23.384 59.9419C23.384 59.1962 23.3562 56.7327 23.3433 54.1197C14.9972 56.0114 13.236 50.4299 13.236 50.4299C11.8714 46.8153 9.90505 45.8542 9.90505 45.8542C7.18313 43.9133 10.1102 43.9531 10.1102 43.9531C13.1228 44.1737 14.709 47.1757 14.709 47.1757C17.3847 51.9566 21.7272 50.5744 23.4391 49.7754C23.7084 47.7542 24.4859 46.3746 25.3438 45.5937C18.6804 44.8029 11.6756 42.1215 11.6756 30.1389C11.6756 26.7247 12.8475 23.935 14.7667 21.745C14.4552 20.9573 13.4283 17.7766 15.0573 13.4691C15.0573 13.4691 17.5765 12.6287 23.3095 16.6747C25.7025 15.9818 28.269 15.6343 30.8185 15.6224C33.368 15.6343 35.9364 15.9818 38.3339 16.6747C44.06 12.6287 46.5757 13.4691 46.5757 13.4691C48.2087 17.7766 47.1813 20.9573 46.8698 21.745C48.7934 23.935 49.9574 26.7247 49.9574 30.1389C49.9574 42.15 42.9392 44.7947 36.2589 45.5688C37.3349 46.5393 38.2937 48.4424 38.2937 51.36C38.2937 55.5443 38.2589 58.9119 38.2589 59.9419C38.2589 60.7741 38.7989 61.7492 40.3196 61.4421C52.2332 57.3024 60.8182 45.5844 60.8182 31.7722C60.8182 14.5007 47.3865 0.5 30.8185 0.5ZM12.0543 45.0479C11.9882 45.2032 11.7537 45.2498 11.5401 45.1432C11.3225 45.0411 11.2003 44.8293 11.2709 44.6735C11.3354 44.5134 11.5704 44.4689 11.7875 44.5761C12.0056 44.6781 12.1298 44.892 12.0543 45.0479ZM13.53 46.4204C13.3869 46.5587 13.1072 46.4945 12.9174 46.2759C12.7212 46.0579 12.6844 45.7664 12.8295 45.626C12.9771 45.4878 13.2483 45.5525 13.445 45.7705C13.6413 45.9911 13.6795 46.2806 13.53 46.4204ZM14.5424 48.1766C14.3585 48.3097 14.058 48.1848 13.8722 47.9068C13.6884 47.6287 13.6884 47.2952 13.8762 47.1616C14.0625 47.028 14.3585 47.1481 14.5468 47.4241C14.7301 47.7069 14.7301 48.0404 14.5424 48.1766ZM16.2545 50.2104C16.0901 50.3994 15.7398 50.3487 15.4835 50.0908C15.2212 49.8386 15.1481 49.4808 15.3131 49.2917C15.4795 49.1022 15.8317 49.1555 16.0901 49.4114C16.3504 49.663 16.4299 50.0235 16.2545 50.2104ZM18.4673 50.897C18.3947 51.142 18.0574 51.2533 17.7176 51.1492C17.3783 51.042 17.1562 50.7551 17.2248 50.5076C17.2953 50.2611 17.6341 50.1451 17.9764 50.2564C18.3152 50.3631 18.5378 50.6479 18.4673 50.897ZM20.9855 51.1883C20.9939 51.4462 20.7058 51.66 20.3491 51.6647C19.9904 51.673 19.7003 51.4643 19.6963 51.2105C19.6963 50.9501 19.978 50.7383 20.3367 50.732C20.6934 50.7248 20.9855 50.9319 20.9855 51.1883ZM23.4594 51.0894C23.5021 51.3411 23.2542 51.5995 22.9 51.6684C22.5517 51.7347 22.2293 51.5793 22.1851 51.3297C22.1419 51.0718 22.3942 50.8134 22.742 50.7466C23.0967 50.6824 23.4142 50.8336 23.4594 51.0894Z" fill="#161614"/>
</svg>
