<svg width="57" height="58" viewBox="0 0 57 58" fill="none" xmlns="http://www.w3.org/2000/svg">
<path d="M35.6755 40.248H41.8275L32.0068 14.7613H25.2049L15.3842 40.248H21.5366L23.1416 35.9308H32.4208L30.741 31.1537H24.6313L28.6058 20.1873L35.6755 40.248ZM55.9622 21.3784C55.7436 20.5911 54.9304 20.1286 54.1398 20.3482C53.3522 20.5668 52.8907 21.3826 53.1093 22.1701C53.7267 24.3932 54.0396 26.6912 54.0396 29.0001C54.0396 43.0822 42.5826 54.5384 28.5 54.5384C14.4174 54.5384 2.96066 43.0822 2.96066 29.0001C2.96066 14.9177 14.4174 3.46132 28.5 3.46132C34.4656 3.46132 40.238 5.5805 44.7938 9.35173C44.6165 9.77476 44.5181 10.239 44.5181 10.7261C44.5181 12.6932 46.1128 14.2879 48.0799 14.2879C50.0471 14.2879 51.6418 12.6932 51.6418 10.7261C51.6418 8.75904 50.0471 7.16442 48.0799 7.16442C47.7012 7.16442 47.3367 7.22476 46.9943 7.3343C41.8643 2.96259 35.2939 0.500977 28.5 0.500977C12.7851 0.500977 0 13.2855 0 29.0001C0 44.7144 12.7851 57.499 28.5 57.499C44.2149 57.499 57 44.7144 57 29.0001C57 26.4236 56.6511 23.8591 55.9622 21.3784Z" fill="#112B49"/>
</svg>
