<svg width="70" height="65" viewBox="0 0 70 65" fill="none" xmlns="http://www.w3.org/2000/svg">
<g clip-path="url(#clip0_6_681)">
<path d="M34.9091 38.8226C38.5815 38.8226 41.5585 35.7904 41.5585 32.0501C41.5585 28.3097 38.5815 25.2776 34.9091 25.2776C31.2368 25.2776 28.2598 28.3097 28.2598 32.0501C28.2598 35.7904 31.2368 38.8226 34.9091 38.8226Z" fill="#087EA4"/>
<path d="M34.9091 47.2881C53.2708 47.2881 68.1559 40.4658 68.1559 32.05C68.1559 23.6342 53.2708 16.8119 34.9091 16.8119C16.5474 16.8119 1.66235 23.6342 1.66235 32.05C1.66235 40.4658 16.5474 47.2881 34.9091 47.2881Z" stroke="#087EA4" stroke-width="3"/>
<path d="M21.9524 39.669C31.1332 55.8652 44.3767 65.5836 51.5324 61.3757C58.6882 57.1678 57.0465 40.6271 47.8657 24.431C38.6848 8.2348 25.4414 -1.48361 18.2857 2.72427C11.1299 6.93216 12.7716 23.4729 21.9524 39.669Z" stroke="#087EA4" stroke-width="3"/>
<path d="M21.9525 24.4309C12.7716 40.627 11.13 57.1678 18.2857 61.3757C25.4415 65.5836 38.6849 55.8651 47.8658 39.669C57.0466 23.4728 58.6883 6.9321 51.5325 2.72421C44.3767 -1.48367 31.1333 8.23474 21.9525 24.4309Z" stroke="#087EA4" stroke-width="3"/>
</g>
<defs>
<clipPath id="clip0_6_681">
<rect width="69.8182" height="64" fill="white" transform="translate(0 0.0500488)"/>
</clipPath>
</defs>
</svg>
