<svg width="66" height="63" viewBox="0 0 66 63" fill="none" xmlns="http://www.w3.org/2000/svg">
<path d="M2.9276 0.603091C2.31236 0.594619 1.7251 0.877014 1.32335 1.37452C0.921604 1.87203 0.746492 2.53373 0.84499 3.18211L9.68568 60.4764C9.91305 61.9236 11.081 62.9877 12.4556 62.9998H54.8679C55.8997 63.014 56.7856 62.2196 56.9506 61.1322L65.7912 3.19323C65.8897 2.54484 65.7146 1.88315 65.3129 1.38564C64.9111 0.888131 64.3239 0.605736 63.7086 0.614207L2.9276 0.603091ZM40.1543 42.0119H26.6173L22.9519 21.5687H43.4344L40.1543 42.0119Z" fill="#2684FF"/>
<path d="M62.9264 21.5399H43.3967L40.1192 41.9668H26.593L10.6217 62.2048C11.1279 62.6721 11.7733 62.932 12.4425 62.9379H54.8315C55.8624 62.9521 56.7476 62.1583 56.9124 61.0719L62.9264 21.5399Z" fill="url(#paint0_linear_7_1001)"/>
<defs>
<linearGradient id="paint0_linear_7_1001" x1="67.4421" y1="27.2603" x2="42.869" y2="59.9431" gradientUnits="userSpaceOnUse">
<stop offset="0.18" stop-color="#0052CC"/>
<stop offset="1" stop-color="#2684FF"/>
</linearGradient>
</defs>
</svg>
