<svg width="67" height="69" viewBox="0 0 67 69" fill="none" xmlns="http://www.w3.org/2000/svg">
<g clip-path="url(#clip0_6_701)">
<path d="M54.5744 44.7375C53.89 44.9807 53.1809 45.2107 52.4507 45.4283C52.5707 45.9339 52.6809 46.433 52.7788 46.9235C54.3864 54.9788 53.3353 61.4681 49.7461 63.6047C46.3045 65.6534 40.676 63.5173 34.9915 58.4107C34.4448 57.9196 33.8967 57.3997 33.3488 56.8548C32.9837 57.2153 32.6192 57.5637 32.2556 57.8969C26.2981 63.3573 20.3266 65.6583 16.7409 63.5156C13.3026 61.461 12.2843 55.3604 13.7314 47.7263C13.8711 46.989 14.0345 46.236 14.2192 45.4704C13.3741 45.2227 12.5582 44.9587 11.7775 44.6779C4.79294 42.1642 0.332275 38.2246 0.332275 34.1383C0.332275 29.9179 5.1208 25.6847 12.3958 23.1179C12.9699 22.9154 13.5656 22.7239 14.1795 22.542C13.9802 21.714 13.8069 20.9026 13.6614 20.1111C12.2816 12.6096 13.3592 6.65314 16.7883 4.61149C20.3303 2.50304 26.2748 4.67028 32.0633 9.89328C32.5208 10.3061 32.9799 10.744 33.4399 11.2029C34.0361 10.6103 34.6313 10.0494 35.2234 9.52332C40.8302 4.54288 46.3678 2.53177 49.7938 4.57912C53.3322 6.69363 54.4822 13.0923 52.9892 20.8774C52.8752 21.4719 52.7425 22.0794 52.5935 22.6976C53.011 22.825 53.4208 22.9565 53.8204 23.0932C61.3834 25.6799 66.3042 29.8615 66.3042 34.1383C66.3042 38.2394 61.6997 42.2055 54.5744 44.7375ZM52.934 25.8547C52.5733 25.7314 52.2032 25.6122 51.826 25.4967C50.9911 28.2252 49.8642 31.1265 48.4852 34.1241C49.8012 37.0503 50.8844 39.9145 51.696 42.6253C52.3709 42.4237 53.0259 42.2111 53.657 41.9867C59.762 39.8173 63.4859 36.6098 63.4859 34.1383C63.4859 31.5057 59.4642 28.0882 52.934 25.8547ZM50.2245 20.3124C50.8847 16.8699 50.979 13.7576 50.5417 11.3245C50.1487 9.13822 49.3586 7.68058 48.3815 7.0968C46.3025 5.85457 41.8564 7.4693 37.0614 11.7286C36.5117 12.2169 35.958 12.7382 35.4026 13.29C37.2615 15.3887 39.1193 17.8284 40.9326 20.538C44.1218 20.8301 47.1349 21.3077 49.8674 21.9597C50.002 21.3993 50.1215 20.8497 50.2245 20.3124ZM22.8236 7.31148C20.7923 6.57096 19.1745 6.54975 18.1965 7.13183C16.1156 8.37079 15.2505 13.1533 16.4305 19.5686C16.5657 20.3033 16.7265 21.058 16.912 21.8294C19.6145 21.2125 22.6055 20.7686 25.8024 20.5011C27.6278 17.8497 29.5394 15.4127 31.4657 13.2787C31.0448 12.8593 30.6256 12.4601 30.2087 12.0838C27.6491 9.77424 25.0841 8.13563 22.8236 7.31148ZM13.3072 25.8708C10.0904 27.0057 7.4338 28.4808 5.61283 30.0905C3.97657 31.537 3.15046 32.973 3.15046 34.1383C3.15046 36.618 6.73192 39.7809 12.7052 41.9307C13.43 42.1916 14.1887 42.4374 14.976 42.6683C15.8016 39.8963 16.8845 36.9981 18.1914 34.0675C16.8676 31.0933 15.7693 28.1489 14.9356 25.3445C14.3743 25.511 13.8305 25.6863 13.3072 25.8708ZM16.4972 48.285C15.2574 54.8257 16.0808 59.7597 18.1528 60.9978C20.3599 62.3168 25.2404 60.4362 30.3843 55.7215C30.7131 55.4201 31.0431 55.1047 31.3742 54.7784C29.4574 52.6538 27.5634 50.235 25.7541 47.5993C22.6514 47.3024 19.6814 46.8256 16.9507 46.187C16.779 46.8999 16.627 47.6003 16.4972 48.285ZM44.9545 41.0315C44.3017 42.1954 43.6315 43.3319 42.9483 44.4372C45.0533 44.1626 47.07 43.7979 48.9639 43.3517C48.3953 41.4707 47.6866 39.5039 46.8524 37.4877C46.254 38.6605 45.621 39.843 44.9545 41.0315ZM33.3497 52.6993C34.6496 51.2455 35.9514 49.6224 37.2319 47.8614C35.9416 47.9243 34.6353 47.957 33.3182 47.957C32.0136 47.957 30.7169 47.925 29.4346 47.8632C30.7163 49.6079 32.0294 51.2288 33.3497 52.6993ZM21.6705 41.0114C21.0185 39.8442 20.3973 38.6682 19.8082 37.4899C18.9875 39.4991 18.2854 41.4748 17.7119 43.3825C19.5942 43.8173 21.6014 44.1729 23.6929 44.4423C23.0001 43.3268 22.3244 42.182 21.6705 41.0116V41.0114ZM23.7532 23.6267C21.5922 23.8755 19.5548 24.2128 17.673 24.6356C18.2557 26.5774 18.9733 28.5953 19.8114 30.6477C20.402 29.4703 21.0256 28.2938 21.6817 27.124H21.6818C22.3501 25.9324 23.0425 24.765 23.7532 23.6267ZM33.4277 15.3722C32.0919 16.8599 30.7596 18.5055 29.4583 20.2756C30.7215 20.2245 32.0094 20.1983 33.3182 20.1983C34.6629 20.1983 35.9922 20.2296 37.3006 20.2897C36.0159 18.4877 34.7188 16.8395 33.4277 15.3722ZM46.8793 30.7523C47.7611 28.6777 48.5044 26.6703 49.0946 24.7616C47.1818 24.3112 45.1166 23.9484 42.9406 23.6788C43.6254 24.7991 44.3015 25.955 44.9658 27.144C45.6378 28.347 46.2759 29.5518 46.8793 30.7523ZM42.5245 28.5974C41.4933 26.7517 40.4345 24.9897 39.3597 23.3264C37.402 23.1819 35.3796 23.1075 33.3182 23.1075C31.2652 23.1075 29.2682 23.1733 27.3452 23.3022C26.227 24.9872 25.1453 26.7545 24.1206 28.5816H24.1208C23.0988 30.4037 22.1582 32.2412 21.3059 34.0684C22.158 35.8999 23.0961 37.7395 24.1122 39.5584L24.112 39.558C25.1308 41.3817 26.2031 43.1403 27.3109 44.8148C29.2729 44.9679 31.2848 45.0478 33.3181 45.0478H33.3182C35.3607 45.0478 37.3752 44.9673 39.3366 44.8129C40.4275 43.1506 41.4925 41.3977 42.5153 39.5738C43.5497 37.7293 44.4999 35.902 45.3593 34.1098C44.5025 32.2868 43.5544 30.441 42.5245 28.5974ZM48.3383 61.0843C50.5475 59.7693 51.4066 54.4655 50.0186 47.5107C49.9301 47.0669 49.8304 46.6149 49.7221 46.1568C46.9851 46.8087 44.013 47.2938 40.9012 47.5952C39.0884 50.2599 37.2099 52.6824 35.3244 54.7797C35.8313 55.2831 36.3376 55.7632 36.8417 56.2161C41.7122 60.5915 46.2643 62.3189 48.3383 61.0843ZM33.3182 40.2194C36.5717 40.2194 39.2093 37.4968 39.2093 34.1383C39.2093 30.7798 36.5717 28.0572 33.3182 28.0572C30.0647 28.0572 27.4272 30.7798 27.4272 34.1383C27.4272 37.4968 30.0647 40.2194 33.3182 40.2194Z" fill="#00D8FF"/>
</g>
<defs>
<clipPath id="clip0_6_701">
<rect width="65.9719" height="68.1" fill="white" transform="matrix(1 0 0 -1 0.332275 68.1)"/>
</clipPath>
</defs>
</svg>
