<svg width="43" height="64" viewBox="0 0 43 64" fill="none" xmlns="http://www.w3.org/2000/svg">
<g clip-path="url(#clip0_5_489)">
<path d="M21.5 32C21.5 29.1711 22.6238 26.458 24.6242 24.4576C26.6246 22.4572 29.3377 21.3334 32.1667 21.3334C34.9956 21.3334 37.7087 22.4572 39.7091 24.4576C41.7095 26.458 42.8333 29.1711 42.8333 32C42.8333 34.829 41.7095 37.5421 39.7091 39.5425C37.7087 41.5429 34.9956 42.6667 32.1667 42.6667C29.3377 42.6667 26.6246 41.5429 24.6242 39.5425C22.6238 37.5421 21.5 34.829 21.5 32Z" fill="#1ABCFE"/>
<path d="M0.166626 53.3333C0.166626 50.5043 1.29043 47.7912 3.29082 45.7908C5.29121 43.7904 8.00432 42.6666 10.8333 42.6666H21.5V53.3333C21.5 56.1623 20.3762 58.8754 18.3758 60.8758C16.3754 62.8762 13.6623 64 10.8333 64C8.00432 64 5.29121 62.8762 3.29082 60.8758C1.29043 58.8754 0.166626 56.1623 0.166626 53.3333Z" fill="#0ACF83"/>
<path d="M21.5 0V21.3333H32.1667C34.9956 21.3333 37.7087 20.2095 39.7091 18.2091C41.7095 16.2087 42.8333 13.4956 42.8333 10.6667C42.8333 7.83769 41.7095 5.12458 39.7091 3.12419C37.7087 1.12381 34.9956 0 32.1667 0L21.5 0Z" fill="#FF7262"/>
<path d="M0.166626 10.6667C0.166626 13.4956 1.29043 16.2087 3.29082 18.2091C5.29121 20.2095 8.00432 21.3333 10.8333 21.3333H21.5V0H10.8333C8.00432 0 5.29121 1.12381 3.29082 3.12419C1.29043 5.12458 0.166626 7.83769 0.166626 10.6667Z" fill="#F24E1E"/>
<path d="M0.166626 32C0.166626 34.829 1.29043 37.5421 3.29082 39.5425C5.29121 41.5429 8.00432 42.6667 10.8333 42.6667H21.5V21.3334H10.8333C8.00432 21.3334 5.29121 22.4572 3.29082 24.4576C1.29043 26.458 0.166626 29.1711 0.166626 32Z" fill="#A259FF"/>
</g>
<defs>
<clipPath id="clip0_5_489">
<rect width="42.6667" height="64" fill="white" transform="translate(0.166626)"/>
</clipPath>
</defs>
</svg>
