<svg width="77" height="73" viewBox="0 0 77 73" fill="none" xmlns="http://www.w3.org/2000/svg">
<path d="M63.9533 39.434C61.4861 39.446 59.3494 39.9995 57.5591 40.826C56.9046 39.6035 56.2405 38.528 56.1298 37.7285C55.9999 36.7955 55.8491 36.2375 56.0063 35.126C56.1635 34.0145 56.8517 32.4395 56.842 32.321C56.8324 32.2025 56.688 31.637 55.2651 31.6265C53.8423 31.6175 52.6247 31.883 52.4819 32.234C52.3392 32.585 52.0648 33.3755 51.8948 34.2005C51.6461 35.4065 49.0538 39.71 47.5828 41.96C47.1016 41.081 46.6925 40.307 46.6075 39.695C46.4775 38.762 46.3267 38.204 46.4839 37.0925C46.6412 35.981 47.3293 34.406 47.3197 34.2875C47.3101 34.169 47.1657 33.6035 45.7428 33.593C44.3199 33.584 43.1024 33.8495 42.9596 34.2005C42.8168 34.5515 42.6628 35.372 42.3725 36.167C42.0805 36.9605 38.6364 44.138 37.7332 45.9995C37.2728 46.9475 36.8734 47.7095 36.591 48.2285L36.5894 48.2255C36.5894 48.2255 36.5718 48.26 36.5429 48.3185C36.3007 48.761 36.1579 49.0055 36.1579 49.0055C36.1579 49.0055 36.1595 49.0085 36.1627 49.0145C35.9702 49.34 35.7649 49.6415 35.6638 49.6415C35.5933 49.6415 35.4505 48.776 35.6943 47.588C36.2077 45.098 37.438 41.216 37.4268 41.081C37.4204 41.012 37.6562 40.3355 36.6231 39.9815C35.6189 39.638 35.2612 40.211 35.1698 40.2125C35.0815 40.214 35.0158 40.415 35.0158 40.415C35.0158 40.415 36.1339 36.0485 32.8822 36.0485C30.8481 36.0485 28.0312 38.129 26.6436 40.0145C25.7677 40.4615 23.8925 41.4185 21.9049 42.44C21.1413 42.833 20.3617 43.2335 19.6222 43.6145C19.5724 43.562 19.5211 43.511 19.4698 43.4585C15.5251 39.524 8.2358 36.7415 8.5438 31.451C8.65609 29.528 9.37155 24.464 22.553 18.323C33.3506 13.292 41.9955 14.6765 43.489 17.744C45.6225 22.1285 38.869 30.275 27.6558 31.451C23.3839 31.8995 21.1333 30.35 20.5734 29.774C19.9847 29.1665 19.8965 29.1395 19.6767 29.2535C19.319 29.4395 19.5452 29.975 19.6767 30.2945C20.012 31.109 21.3852 32.5535 23.7272 33.2735C25.7886 33.9065 30.8048 34.253 36.8702 32.0585C43.6654 29.6015 48.9704 22.7645 47.4112 17.051C45.8262 11.24 35.5211 9.32896 25.7677 12.569C19.9558 14.498 13.6723 17.525 9.15338 21.476C3.78103 26.174 2.9244 30.2645 3.27732 31.973C4.53178 38.045 13.4814 41.999 17.0651 44.9285C16.8887 45.02 16.7218 45.1055 16.571 45.1835C14.7744 46.0145 7.95186 49.3535 6.24503 52.88C4.3088 56.8805 6.55303 59.7515 8.03849 60.1385C12.6408 61.3355 17.3635 59.1815 19.9029 55.6415C22.4407 52.103 22.1311 47.4935 20.9665 45.3905C20.952 45.365 20.936 45.3395 20.9215 45.3125C21.3852 45.056 21.8584 44.795 22.3268 44.537C23.2412 44.0345 24.1395 43.5665 24.9175 43.1705C24.4812 44.2865 24.162 45.626 23.9967 47.5595C23.801 49.8305 24.7972 52.766 26.0998 53.921C26.6741 54.4295 27.3639 54.4415 27.8002 54.4415C29.3162 54.4415 30.0075 53.2625 30.7695 51.8675C31.7032 50.1575 32.5325 48.1655 32.5325 48.1655C32.5325 48.1655 31.493 53.5445 34.326 53.5445C35.3591 53.5445 36.3969 52.292 36.8605 51.6545C36.8622 51.662 36.8622 51.665 36.8622 51.665C36.8622 51.665 36.8894 51.623 36.9424 51.5405C37.0498 51.3875 37.1108 51.29 37.1108 51.29C37.1108 51.29 37.1124 51.2795 37.1156 51.2615C37.5311 50.588 38.4519 49.052 39.8315 46.5185C41.6153 43.2455 43.3253 39.1445 43.3253 39.1445C43.3253 39.1445 43.4841 40.1465 44.0055 41.8055C44.3119 42.7805 44.9632 43.859 45.4781 44.894C45.0643 45.431 44.8108 45.7385 44.8108 45.7385C44.8108 45.7385 44.8124 45.7445 44.8172 45.755C44.4868 46.166 44.1162 46.6085 43.728 47.0405C42.3195 48.608 40.6432 50.399 40.4186 50.915C40.1539 51.524 40.2165 51.971 40.7282 52.3325C41.102 52.595 41.7661 52.637 42.4607 52.5935C43.7264 52.514 44.6151 52.22 45.0546 52.0415C45.7396 51.815 46.5369 51.4595 47.2844 50.945C48.6656 49.9955 49.4982 48.638 49.418 46.838C49.373 45.8465 49.0362 44.864 48.6079 43.937C48.733 43.769 48.8581 43.598 48.9848 43.427C51.1617 40.451 52.8509 37.181 52.8509 37.181C52.8509 37.181 53.0097 38.183 53.531 39.842C53.7941 40.6805 54.3155 41.597 54.7839 42.494C52.737 44.0495 51.4681 45.857 51.0269 47.042C50.212 49.235 50.8505 50.228 52.0472 50.4545C52.5894 50.5565 53.3562 50.324 53.9321 50.096C54.6492 49.874 55.5106 49.5035 56.3159 48.95C57.6971 48.0005 59.0253 46.6715 58.9451 44.873C58.9082 44.054 58.6708 43.241 58.3484 42.461C60.0841 41.7845 62.3299 41.4095 65.1917 41.7215C71.3309 42.392 72.534 45.9755 72.3046 47.4755C72.0736 48.9755 70.7871 49.8005 70.3555 50.0495C69.9256 50.2985 69.7941 50.3855 69.8294 50.57C69.8823 50.8385 70.0812 50.8295 70.4486 50.771C70.9539 50.6915 73.6714 49.5515 73.7885 46.7825C73.9344 43.2635 70.3331 39.4025 63.9533 39.434ZM16.6352 54.35C14.6011 56.4245 11.7618 57.2075 10.5426 56.5475C9.22717 55.835 9.74853 52.781 12.243 50.579C13.7638 49.238 15.7273 48.002 17.0298 47.2415C17.3266 47.075 17.7613 46.8305 18.2907 46.5335C18.3789 46.487 18.4287 46.4615 18.4287 46.4615L18.4271 46.4585C18.5297 46.4015 18.634 46.343 18.7415 46.2815C19.651 49.415 18.7704 52.1735 16.6352 54.35ZM31.4497 44.9345C30.7423 46.5485 29.26 50.6795 28.3569 50.4575C27.582 50.267 27.1104 47.1275 28.2029 44.0375C28.7515 42.482 29.9257 40.6235 30.6155 39.902C31.7256 38.741 32.948 38.3615 33.2448 38.8325C33.6217 39.4325 31.894 43.922 31.4497 44.9345ZM43.6879 50.3945C43.3879 50.5415 43.112 50.633 42.9853 50.5625C42.8906 50.51 43.1088 50.3165 43.1088 50.3165C43.1088 50.3165 44.6392 48.776 45.2423 48.0755C45.5936 47.6675 45.9995 47.183 46.4422 46.643C46.4454 46.697 46.447 46.751 46.447 46.8035C46.4438 48.6485 44.5381 49.8935 43.6879 50.3945ZM53.1156 48.3845C52.891 48.236 52.9295 47.7545 53.6658 46.253C53.9545 45.6635 54.6155 44.672 55.7608 43.724C55.894 44.114 55.9742 44.4875 55.9726 44.8355C55.9581 47.1575 54.1872 48.0245 53.1156 48.3845Z" fill="#F06292"/>
</svg>
