<svg width="62" height="64" viewBox="0 0 62 64" fill="none" xmlns="http://www.w3.org/2000/svg">
<path fill-rule="evenodd" clip-rule="evenodd" d="M36.856 7.33428L50.9494 14.9324C51.3462 14.5398 51.8098 14.1933 52.3356 13.9081C55.2586 12.3391 58.9866 13.2707 60.6844 16C62.3646 18.7293 61.367 22.2104 58.444 23.7957C57.9222 24.0758 57.3741 24.2762 56.8163 24.4009V39.603C57.3681 39.728 57.9102 39.9271 58.4265 40.2043C61.367 41.7896 62.3646 45.2707 60.6669 48C58.9866 50.7293 55.2411 51.6609 52.3181 50.0919C51.7362 49.7796 51.2306 49.3908 50.8072 48.9468L36.7998 56.4985C37 57.0635 37.1084 57.6679 37.1084 58.2962C37.1084 61.4341 34.378 64 31 64C27.622 64 24.8916 61.4505 24.8916 58.2962C24.8916 57.7355 24.9779 57.194 25.1387 56.6824L11.0491 49.0864C10.6565 49.4712 10.1993 49.8113 9.68186 50.0919C6.74143 51.6609 3.01338 50.7293 1.33313 48C-0.347113 45.2707 0.650534 41.7896 3.57346 40.2043C4.09026 39.9269 4.63223 39.7276 5.1837 39.6027V24.4009C4.62586 24.2762 4.0778 24.0758 3.55596 23.7957C0.633031 22.2268 -0.364615 18.7293 1.31563 16C2.99588 13.2707 6.74143 12.3391 9.66436 13.9081C10.1874 14.1917 10.6487 14.5361 11.0441 14.926L25.1413 7.32583C24.9788 6.81186 24.8916 6.26748 24.8916 5.70378C24.8916 2.54954 27.622 0 31 0C34.378 0 37.1084 2.54954 37.1084 5.70378C37.1084 6.27057 37.0202 6.81783 36.856 7.33428ZM35.3876 9.67528L49.5146 17.2914C49.0779 18.7235 49.2382 20.3115 50.0953 21.7038C50.9552 23.1006 52.3561 24.0266 53.9109 24.3874V39.6085C53.8316 39.6267 53.7528 39.6463 53.6744 39.6674L35.2236 9.82741C35.2793 9.77766 35.334 9.72694 35.3876 9.67528ZM26.7803 9.83086L8.32976 39.6703C8.24999 39.6487 8.16976 39.6286 8.08913 39.61V24.3874C9.64386 24.0266 11.0448 23.1006 11.9047 21.7038C12.7635 20.3087 12.9227 18.7173 12.4828 17.2829L26.6058 9.66893C26.6628 9.72399 26.721 9.77798 26.7803 9.83086ZM32.7067 11.1827L51.1531 41.0154C50.7402 41.3829 50.3764 41.8112 50.0778 42.2962C49.781 42.7784 49.5677 43.2845 49.4339 43.7998H12.5665C12.4326 43.2849 12.2193 42.7788 11.9222 42.2962C11.6224 41.8143 11.2593 41.3884 10.8486 41.0225L29.2984 11.1841C29.8384 11.3296 30.4093 11.4076 31 11.4076C31.5926 11.4076 32.1653 11.3291 32.7067 11.1827ZM35.5174 54.4536L49.5526 46.8869C49.5105 46.7634 49.4729 46.6386 49.4398 46.5128H12.5586C12.5391 46.5867 12.518 46.6603 12.4953 46.7334L26.5994 54.3373C27.7099 53.2611 29.27 52.5924 31 52.5924C32.7915 52.5924 34.4008 53.3095 35.5174 54.4536Z" fill="#E535AB"/>
</svg>
