<svg width="71" height="14" viewBox="0 0 71 14" fill="none" xmlns="http://www.w3.org/2000/svg">
<path d="M35.2384 2.32383V13.0578L34.3291 14V5.0708H32.6175L35.2384 2.32383ZM66.7757 0.685669C67.5372 0.685669 68.2442 0.833397 68.8969 1.12885C69.5247 1.40788 70.0663 1.7216 70.5217 2.06999L70.6011 2.13183L69.6584 4.44102C69.5723 4.35047 69.4509 4.24689 69.294 4.13029L69.2049 4.0654L69.1088 3.99793L69.0057 3.92787C68.7156 3.72572 68.3711 3.55467 67.9723 3.41471C67.5734 3.25921 67.1625 3.18146 66.7394 3.18146C65.6033 3.18146 65.0352 3.59354 65.0352 4.4177C65.0352 4.89975 65.2407 5.24185 65.6516 5.44403L65.7452 5.48771L65.8448 5.53209L65.9502 5.5772L66.0616 5.62302L66.1789 5.66955L66.3021 5.71679C66.3231 5.72473 66.3444 5.73269 66.3659 5.74068L66.498 5.789L66.636 5.83803L66.78 5.88777L66.9298 5.93823L67.0856 5.9894L67.3303 6.0675L67.5009 6.12046C68.214 6.35371 68.8304 6.61806 69.3502 6.91352C69.8598 7.19666 70.2529 7.57263 70.5295 8.04143L70.5649 8.1031C70.855 8.58516 71 9.22266 71 10.0157C71 10.9798 70.8066 11.7574 70.4198 12.3483C70.0452 12.9236 69.5496 13.3435 68.9332 13.6078C68.3167 13.8566 67.652 13.981 66.9389 13.981C66.117 13.981 65.3011 13.8333 64.4913 13.5379C63.7201 13.2565 63.031 12.8764 62.4242 12.3975L62.3338 12.325L63.3129 9.87582C63.47 10.078 63.7298 10.3034 64.0924 10.5522C64.4671 10.801 64.9023 11.011 65.3978 11.182C65.8934 11.3531 66.4191 11.4386 66.9751 11.4386C68.0871 11.4386 68.6431 11.0576 68.6431 10.2957C68.6431 9.78251 68.3832 9.41709 67.8635 9.19938L67.7385 9.14296L67.6073 9.08563L67.4698 9.02741L67.326 8.9683L67.176 8.90829L67.0197 8.84738C66.9931 8.83715 66.9663 8.82689 66.9392 8.81659L66.7735 8.75434L66.6016 8.69119L66.4233 8.62715L66.2388 8.56221L65.9504 8.46313L65.8511 8.42965C64.8116 8.08755 64.0381 7.65215 63.5304 7.12344C63.0349 6.57919 62.7871 5.80168 62.7871 4.7909C62.7871 3.88899 62.9623 3.13481 63.3129 2.52836C63.6755 1.9219 64.1589 1.46317 64.7633 1.15217C65.3797 0.84117 66.0505 0.685669 66.7757 0.685669ZM49.9623 0.708993C50.7294 0.708993 51.4297 0.888706 52.0627 1.24813L52.1383 1.29212C52.791 1.66533 53.347 2.1707 53.8063 2.80826C54.2777 3.43026 54.6399 4.1378 54.8937 4.93085C55.1475 5.72393 55.2748 6.53249 55.2748 7.35665C55.2748 8.2119 55.1419 9.03611 54.8759 9.82916C54.61 10.6067 54.235 11.3064 53.7515 11.9284C53.2801 12.5349 52.7185 13.0169 52.0658 13.3746C51.4131 13.7322 50.7 13.9111 49.9264 13.9111C49.1287 13.9111 48.4035 13.7322 47.7508 13.3746C47.0981 13.0014 46.5357 12.5038 46.0644 11.8818C45.593 11.2442 45.2304 10.5289 44.9766 9.73586C44.7231 8.94281 44.5958 8.12643 44.5958 7.28672C44.5958 6.43146 44.7288 5.60731 44.9947 4.81423C45.2485 4.05722 45.6018 3.38523 46.0539 2.79824L46.1191 2.71496C46.6026 2.09295 47.1703 1.60313 47.823 1.24547C48.4757 0.887821 49.1888 0.708993 49.9623 0.708993ZM6.21861 0.778971L10.6242 13.8178H8.30357L7.28829 10.7622H3.35406L2.33878 13.8178H0L4.42374 0.778971H6.21861ZM19.1956 0.778971L21.9877 5.39736L24.7797 0.778971H27.1547L23.148 7.38002L27.0278 13.8178H24.6528L21.9877 9.38599L19.3407 13.8178H16.9294L20.8273 7.38002L16.8025 0.778971H19.1956ZM36.9013 0.719247V9.4443H38.6609L35.9939 12.2602V1.53208L36.9013 0.719247ZM49.9264 3.22811C49.2617 3.22811 48.6932 3.43026 48.2218 3.83457C47.7625 4.23887 47.412 4.75203 47.1703 5.37403C46.9286 5.99606 46.8077 6.64139 46.8077 7.31004C46.8077 8.0098 46.935 8.67846 47.1888 9.31601C47.4422 9.93801 47.7988 10.4434 48.2581 10.8321C48.7295 11.2209 49.2915 11.4153 49.9442 11.4153C50.609 11.4153 51.171 11.2131 51.6303 10.8088C52.09 10.389 52.4401 9.86804 52.6818 9.24599C52.9236 8.60843 53.0448 7.95538 53.0448 7.28672C53.0448 6.58696 52.9179 5.92604 52.6641 5.30405C52.4103 4.68205 52.0477 4.18445 51.5759 3.81124C51.1166 3.42249 50.567 3.22811 49.9264 3.22811ZM5.33024 4.20777L3.84357 8.31303H6.76252L5.33024 4.20777Z" fill="#5A29E4"/>
</svg>
