<svg width="57" height="67" viewBox="0 0 57 67" fill="none" xmlns="http://www.w3.org/2000/svg">
<path fill-rule="evenodd" clip-rule="evenodd" d="M5.18729 59.9021L0 0.5H57L51.8072 59.8924L28.4655 66.5L5.18729 59.9021Z" fill="#0071BC"/>
<path fill-rule="evenodd" clip-rule="evenodd" d="M28.5479 61.4463L47.3856 56.1551L51.7993 5.44702H28.5479V61.4463Z" fill="#29ABE2"/>
<path fill-rule="evenodd" clip-rule="evenodd" d="M11.8737 27.271L12.4985 34.5457L28.5479 27.271V19.9845L11.8737 27.271Z" fill="#B3B3B3"/>
<path fill-rule="evenodd" clip-rule="evenodd" d="M46.323 12.2065L28.5479 19.9845V27.2711L45.7101 19.4813L46.323 12.2065Z" fill="#E6E6E6"/>
<path fill-rule="evenodd" clip-rule="evenodd" d="M28.5479 46.3052L28.4928 46.3136L20.5334 44.1312L20.0134 38.3286H12.8501L13.8497 49.7601L28.4912 53.8993L28.5479 53.8856V46.3052Z" fill="#E6E6E6"/>
<path fill-rule="evenodd" clip-rule="evenodd" d="M28.5479 27.271V34.5457H37.262L36.47 44.0569L28.5479 46.3114V53.8913L43.1407 49.7521L45.0623 27.271H28.5479Z" fill="white"/>
<path fill-rule="evenodd" clip-rule="evenodd" d="M28.5479 27.271H11.8737L12.4985 34.5457H28.5479V27.271Z" fill="#E6E6E6"/>
<path fill-rule="evenodd" clip-rule="evenodd" d="M28.5478 19.4813V12.2065H28.4755H10.6068L11.2391 19.4813H28.5478Z" fill="#E6E6E6"/>
<path fill-rule="evenodd" clip-rule="evenodd" d="M28.5479 12.2065V19.39V19.4813H45.7101L46.323 12.2065H28.5479Z" fill="white"/>
</svg>
