<svg width="66" height="67" viewBox="0 0 66 67" fill="none" xmlns="http://www.w3.org/2000/svg">
<g clip-path="url(#clip0_8_1074)">
<path d="M32.6832 0.261719C15.9687 0.26172 17.0124 7.61999 17.0124 7.61999L17.0311 15.2431H32.9814V17.5319H10.6957C10.6957 17.5319 0 16.3005 0 33.4212C-1.19212e-06 50.5419 9.3354 49.9348 9.3354 49.9348H14.9068V41.9901C14.9068 41.9901 14.6065 32.5133 24.0932 32.5133H39.913C39.913 32.5133 48.8012 32.6591 48.8012 23.7931V9.13326C48.8012 9.13326 50.1507 0.261719 32.6832 0.261719ZM23.8882 5.38792C25.4751 5.38792 26.7578 6.68998 26.7578 8.30096C26.7578 9.91195 25.4751 11.214 23.8882 11.214C22.3013 11.214 21.0186 9.91195 21.0186 8.30096C21.0186 6.68998 22.3013 5.38792 23.8882 5.38792Z" fill="url(#paint0_linear_8_1074)"/>
<path d="M33.1579 66.7524C49.8725 66.7524 48.8287 59.3941 48.8287 59.3941L48.8101 51.771H32.8598V49.4822H55.1455C55.1455 49.4822 65.8412 50.7136 65.8412 33.5929C65.8412 16.4722 56.5058 17.0793 56.5058 17.0793H50.9343V25.024C50.9343 25.024 51.2346 34.5008 41.748 34.5008H25.9281C25.9281 34.5008 17.0399 34.355 17.0399 43.2211V57.8809C17.0399 57.8809 15.6904 66.7524 33.1579 66.7524ZM41.953 61.6262C40.366 61.6262 39.0834 60.3241 39.0834 58.7132C39.0834 57.1022 40.366 55.8001 41.953 55.8001C43.5399 55.8001 44.8225 57.1022 44.8225 58.7132C44.8225 60.3241 43.5399 61.6262 41.953 61.6262Z" fill="url(#paint1_linear_8_1074)"/>
</g>
<defs>
<linearGradient id="paint0_linear_8_1074" x1="6.32746" y1="6.24238" x2="39.4416" y2="38.5368" gradientUnits="userSpaceOnUse">
<stop stop-color="#387EB8"/>
<stop offset="1" stop-color="#366994"/>
</linearGradient>
<linearGradient id="paint1_linear_8_1074" x1="26.3548" y1="27.2995" x2="61.8912" y2="60.3917" gradientUnits="userSpaceOnUse">
<stop stop-color="#FFE052"/>
<stop offset="1" stop-color="#FFC331"/>
</linearGradient>
<clipPath id="clip0_8_1074">
<rect width="66" height="67" fill="white"/>
</clipPath>
</defs>
</svg>
