<svg width="99" height="62" viewBox="0 0 99 62" fill="none" xmlns="http://www.w3.org/2000/svg">
<path fill-rule="evenodd" clip-rule="evenodd" d="M49.365 0.160034C36.201 0.160034 27.9735 7.03115 24.6825 20.7734C29.619 13.9023 35.3783 11.3256 41.9603 13.0434C45.7156 14.0225 48.3996 16.8683 51.3707 20.0156C56.2103 25.1442 61.8123 31.08 74.0475 31.08C87.2115 31.08 95.439 24.2089 98.73 10.4667C93.7935 17.3378 88.0342 19.9145 81.4522 18.1967C77.6969 17.2176 75.0129 14.3718 72.0418 11.2244C67.2022 6.09591 61.6002 0.160034 49.365 0.160034ZM24.6825 31.08C11.5185 31.08 3.291 37.9511 0 51.6934C4.9365 44.8223 10.6958 42.2456 17.2778 43.9634C21.0331 44.9444 23.7171 47.7883 26.6882 50.9356C31.5278 56.0642 37.1298 62 49.365 62C62.529 62 70.7565 55.1289 74.0475 41.3867C69.111 48.2578 63.3517 50.8345 56.7697 49.1167C53.0144 48.1376 50.3304 45.2918 47.3593 42.1444C42.5197 37.0159 36.9177 31.08 24.6825 31.08Z" fill="#38BDF8"/>
</svg>
