<svg width="257" height="59" viewBox="0 0 257 59" fill="none" xmlns="http://www.w3.org/2000/svg">
<path d="M75.204 31.2C75.204 27.9333 76.072 25.4133 77.808 23.64C79.5627 21.8667 82.12 20.98 85.48 20.98C86.376 20.98 87.3467 21.092 88.392 21.316C89.4373 21.5213 90.2867 21.7733 90.94 22.072V27.252H89.372L88.14 23.304C87.5053 23.192 86.9733 23.136 86.544 23.136C84.2107 23.136 82.512 23.7893 81.448 25.096C80.384 26.384 79.852 28.4187 79.852 31.2C79.852 33.9627 80.356 35.9973 81.364 37.304C82.372 38.6107 83.94 39.264 86.068 39.264C86.516 39.264 87.0387 39.2173 87.636 39.124L89.708 34.896H91.276L90.548 40.048C89.8947 40.4027 89.0547 40.72 88.028 41C87.02 41.28 86.012 41.42 85.004 41.42C81.868 41.42 79.4507 40.5333 77.752 38.76C76.0533 36.968 75.204 34.448 75.204 31.2ZM100.019 41.42C98.955 41.42 97.9563 41.2333 97.023 40.86C96.1083 40.4867 95.315 39.9733 94.643 39.32C93.971 38.6667 93.439 37.8827 93.047 36.968C92.655 36.0533 92.459 35.0547 92.459 33.972C92.459 32.8893 92.655 31.9 93.047 31.004C93.439 30.0893 93.971 29.3053 94.643 28.652C95.315 27.9987 96.1083 27.4947 97.023 27.14C97.9563 26.7667 98.955 26.58 100.019 26.58C101.083 26.58 102.072 26.7667 102.987 27.14C103.902 27.4947 104.695 27.9987 105.367 28.652C106.058 29.3053 106.59 30.0893 106.963 31.004C107.355 31.9 107.551 32.8893 107.551 33.972C107.551 35.036 107.355 36.0253 106.963 36.94C106.59 37.8547 106.058 38.648 105.367 39.32C104.695 39.9733 103.902 40.4867 102.987 40.86C102.072 41.2333 101.083 41.42 100.019 41.42ZM96.967 33.972C96.967 35.7267 97.219 37.108 97.723 38.116C98.2457 39.1053 99.011 39.6 100.019 39.6C101.027 39.6 101.783 39.1053 102.287 38.116C102.81 37.108 103.071 35.7267 103.071 33.972C103.071 32.236 102.81 30.8733 102.287 29.884C101.783 28.8947 101.027 28.4 100.019 28.4C99.011 28.4 98.2457 28.8947 97.723 29.884C97.219 30.8733 96.967 32.236 96.967 33.972ZM108.628 34.504C108.628 31.984 109.421 30.0333 111.008 28.652C112.613 27.2707 114.564 26.58 116.86 26.58C117.439 26.58 117.98 26.636 118.484 26.748V21.148H116.104V19.664L120.584 18.6H122.824V38.9H125.008V40.104C124.896 40.1973 124.737 40.3187 124.532 40.468C124.345 40.6173 123.963 40.8133 123.384 41.056C122.805 41.2987 122.255 41.42 121.732 41.42C120.948 41.42 120.285 41.2333 119.744 40.86C119.221 40.4867 118.848 40.0853 118.624 39.656C117.597 40.832 116.337 41.42 114.844 41.42C113.145 41.42 111.68 40.832 110.448 39.656C109.235 38.4613 108.628 36.744 108.628 34.504ZM113.052 34.392C113.052 35.9227 113.379 37.08 114.032 37.864C114.704 38.648 115.367 39.04 116.02 39.04C116.953 39.04 117.775 38.6947 118.484 38.004V28.596C117.961 28.4653 117.504 28.4 117.112 28.4C115.88 28.4 114.891 28.8947 114.144 29.884C113.416 30.8547 113.052 32.3573 113.052 34.392ZM125.534 33.832C125.534 31.6293 126.15 29.8747 127.382 28.568C128.633 27.2427 130.322 26.58 132.45 26.58C134.616 26.58 136.249 27.3173 137.35 28.792C138.47 30.2667 139.03 32.0867 139.03 34.252H129.846C129.977 35.6333 130.472 36.828 131.33 37.836C132.189 38.8253 133.29 39.32 134.634 39.32C135.642 39.32 136.725 39.1053 137.882 38.676L138.47 40.272C136.734 41.0373 135.036 41.42 133.374 41.42C130.966 41.42 129.053 40.72 127.634 39.32C126.234 37.9013 125.534 36.072 125.534 33.832ZM129.846 32.516L134.578 32.208C134.578 31.76 134.55 31.3493 134.494 30.976C134.438 30.584 134.28 30.1173 134.018 29.576C133.552 28.792 133.001 28.4 132.366 28.4C131.62 28.4 131.004 28.7827 130.518 29.548C130.238 30.0147 130.052 30.528 129.958 31.088C129.865 31.648 129.828 32.124 129.846 32.516ZM156.378 20.98C158.338 20.98 160.158 21.344 161.838 22.072V27.252H160.27L158.982 23.108C158.478 23.0333 157.965 22.996 157.442 22.996C155.184 22.996 153.41 23.696 152.122 25.096C150.834 26.496 150.19 28.5307 150.19 31.2C150.19 36.6693 152.421 39.404 156.882 39.404C157.162 39.404 157.433 39.3947 157.694 39.376V34.056L154.502 33.076V31.788H164.33V33.076L162.258 34.056V40.048C161.885 40.2347 161.446 40.412 160.942 40.58C160.438 40.748 159.897 40.888 159.318 41C158.74 41.1307 158.152 41.2333 157.554 41.308C156.957 41.3827 156.378 41.42 155.818 41.42C152.514 41.42 149.976 40.5333 148.202 38.76C146.429 36.9867 145.542 34.4667 145.542 31.2C145.542 27.9333 146.476 25.4133 148.342 23.64C150.209 21.8667 152.888 20.98 156.378 20.98ZM164.765 41V39.516L167.145 38.956V29.548H164.765V28.064L169.245 27H171.457V38.956L173.837 39.516V41H164.765ZM166.697 22.688C166.697 21.96 166.949 21.3533 167.453 20.868C167.957 20.364 168.573 20.112 169.301 20.112C170.048 20.112 170.664 20.364 171.149 20.868C171.653 21.3533 171.905 21.96 171.905 22.688C171.905 23.4347 171.653 24.06 171.149 24.564C170.664 25.068 170.048 25.32 169.301 25.32C168.573 25.32 167.957 25.068 167.453 24.564C166.949 24.06 166.697 23.4347 166.697 22.688ZM174.261 41V39.516L176.641 38.956V29.548H174.261V28.064L178.741 27H180.953V28.68C182.353 27.28 184.014 26.58 185.937 26.58C186.049 26.9347 186.105 27.3267 186.105 27.756C186.105 28.6147 186.011 29.4173 185.825 30.164L182.297 29.576C181.849 29.7813 181.401 30.08 180.953 30.472V38.956L183.893 39.516V41H174.261ZM186.071 41V39.516L188.451 38.956V21.148H186.071V19.664L190.551 18.6H192.763V38.956L195.143 39.516V41H186.071Z" fill="#FA7436"/>
<path d="M56.276 43L69.96 12.2H74.096L60.456 43H56.276Z" fill="#FA7436"/>
<path d="M212.42 10.1042L231.746 29.4296L212.42 48.755L217.62 53.9542L242.144 29.4296L217.62 4.90494L212.42 10.1042Z" fill="black"/>
<path d="M44.4387 48.755L25.1133 29.4296L44.4387 10.1042L39.2395 4.90494L14.7149 29.4296L39.2395 53.9542L44.4387 48.755Z" fill="black"/>
</svg>
